<svg 
  xmlns="http://www.w3.org/2000/svg" 
  width="16" 
  height="16" 
  viewBox="0 0 16 16" 
  fill="none"
>
  <path 
    d="M8 0L7.62 0.18L0.62 3.12L0 3.38V4C0 7.32 1.34 10.24 2.94 12.38C3.74 13.44 4.6 14.32 5.44 14.94C6.28 15.56 7.1 16 8 16C8.92 16 9.72 15.56 10.56 14.94C11.4 14.32 12.26 13.44 13.06 12.38C14.66 10.24 16 7.32 16 4V3.38L15.38 3.12L8.38 0.18L8 0ZM8 2.18V14C7.92 14 7.34 13.86 6.68 13.38C6.02 12.9 5.26 12.12 4.56 11.2C3.13957 9.28976 2.29316 7.01416 2.12 4.64L8 2.2V2.18Z" 
    fill="currentColor"
  />
</svg>
